#define apple_width 14
#define apple_height 16
static unsigned char apple_bits[] = {
   0x1c, 0x00, 0xba, 0x00, 0xdc, 0x00, 0x80, 0x00, 0xbc, 0x0f, 0xc2, 0x10,
   0x03, 0x30, 0x07, 0x38, 0x1f, 0x3e, 0xff, 0x3f, 0xff, 0x3f, 0xff, 0x3f,
   0xfe, 0x1f, 0xfe, 0x1f, 0xfc, 0x0f, 0x38, 0x07 };
