#define kirb_movel_2_width 24
#define kirb_movel_2_height 18
static unsigned char kirb_movel_2_bits[] = {
   0x00, 0x3f, 0x00, 0x80, 0xc0, 0x00, 0x40, 0x00, 0x01, 0x20, 0x00, 0x02,
   0xfc, 0x0c, 0x06, 0x7e, 0x04, 0x3c, 0xff, 0x0c, 0x40, 0xdf, 0x0c, 0x80,
   0xdf, 0x0c, 0x80, 0x3e, 0x30, 0xc2, 0xfc, 0x00, 0x7f, 0xf8, 0xc3, 0x3f,
   0xec, 0xff, 0x07, 0xfc, 0xff, 0x0f, 0xf8, 0xff, 0x1f, 0xf0, 0xff, 0x1f,
   0xc0, 0x83, 0x1f, 0x00, 0x80, 0x0f };
