#define kirb_move_2_width 24
#define kirb_move_2_height 18
static unsigned char kirb_move_2_bits[] = {
   0x00, 0xfc, 0x00, 0x00, 0x03, 0x01, 0x80, 0x00, 0x02, 0x40, 0x00, 0x04,
   0x60, 0x30, 0x3f, 0x3c, 0x20, 0x7e, 0x02, 0x30, 0xff, 0x01, 0x30, 0xfb,
   0x01, 0x30, 0xfb, 0x43, 0x0c, 0x7c, 0xfe, 0x00, 0x3f, 0xfc, 0xc3, 0x1f,
   0xe0, 0xff, 0x37, 0xf0, 0xff, 0x3f, 0xf8, 0xff, 0x1f, 0xf8, 0xff, 0x0f,
   0xf8, 0xc1, 0x03, 0xf0, 0x01, 0x00 };
