#define kirb_movel_1_width 24
#define kirb_movel_1_height 18
static unsigned char kirb_movel_1_bits[] = {
   0x00, 0x3f, 0x00, 0x80, 0xc0, 0x00, 0x40, 0x00, 0x01, 0x20, 0x00, 0x02,
   0xe0, 0x0c, 0x06, 0x70, 0x04, 0x0c, 0xf8, 0x0c, 0x38, 0xde, 0x0c, 0x40,
   0xdf, 0x0c, 0x80, 0x3f, 0x30, 0x82, 0x1f, 0x00, 0xc7, 0x3e, 0xcf, 0x7f,
   0xfc, 0xff, 0x3f, 0xf0, 0xfe, 0x03, 0xe0, 0xff, 0x01, 0xe0, 0x7f, 0x00,
   0xe0, 0x3f, 0x00, 0xc0, 0x0f, 0x00 };
