#define kirb_idle_2_width 22
#define kirb_idle_2_height 18
static unsigned char kirb_idle_2_bits[] = {
   0x00, 0x7e, 0x00, 0x80, 0x81, 0x00, 0x40, 0x00, 0x01, 0x20, 0x00, 0x02,
   0x30, 0x00, 0x02, 0x10, 0x98, 0x07, 0x18, 0x10, 0x0f, 0x0c, 0x98, 0x0d,
   0x02, 0x98, 0x1d, 0x01, 0x06, 0x3e, 0x41, 0x00, 0x3c, 0xe3, 0x61, 0x3e,
   0xfe, 0xff, 0x1f, 0xfc, 0xff, 0x0f, 0xf8, 0xff, 0x1f, 0xdc, 0xff, 0x3f,
   0xfc, 0xef, 0x3f, 0xf8, 0xc7, 0x1f };
