#define kirb_move_1_width 24
#define kirb_move_1_height 18
static unsigned char kirb_move_1_bits[] = {
   0x00, 0xfc, 0x00, 0x00, 0x03, 0x01, 0x80, 0x00, 0x02, 0x40, 0x00, 0x04,
   0x60, 0x30, 0x07, 0x30, 0x20, 0x0e, 0x1c, 0x30, 0x1f, 0x02, 0x30, 0x7b,
   0x01, 0x30, 0xfb, 0x41, 0x0c, 0xfc, 0xe3, 0x00, 0xf8, 0xfe, 0xf3, 0x7c,
   0xfc, 0xff, 0x3f, 0xc0, 0x7f, 0x0f, 0x80, 0xff, 0x07, 0x00, 0xfe, 0x07,
   0x00, 0xfc, 0x07, 0x00, 0xf0, 0x03 };
